<?xml version="1.0" encoding="UTF-8" standalone="no"?>
<!-- Created with Inkscape (http://www.inkscape.org/) -->

<svg
   width="85mm"
   height="55mm"
   viewBox="0 0 85 55"
   version="1.1"
   id="svg5"
   sodipodi:docname="рисунок.svg"
   inkscape:version="1.2.2 (732a01da63, 2022-12-09)"
   inkscape:export-filename="рисунок.png"
   inkscape:export-xdpi="382.49411"
   inkscape:export-ydpi="382.49411"
   xmlns:inkscape="http://www.inkscape.org/namespaces/inkscape"
   xmlns:sodipodi="http://sodipodi.sourceforge.net/DTD/sodipodi-0.dtd"
   xmlns:xlink="http://www.w3.org/1999/xlink"
   xmlns="http://www.w3.org/2000/svg"
   xmlns:svg="http://www.w3.org/2000/svg"
   xmlns:rdf="http://www.w3.org/1999/02/22-rdf-syntax-ns#"
   xmlns:cc="http://creativecommons.org/ns#"
   xmlns:dc="http://purl.org/dc/elements/1.1/">
  <title
     id="title10439">lab1</title>
  <sodipodi:namedview
     id="namedview7"
     pagecolor="#ffffff"
     bordercolor="#000000"
     borderopacity="0.25"
     inkscape:showpageshadow="2"
     inkscape:pageopacity="0.0"
     inkscape:pagecheckerboard="0"
     inkscape:deskcolor="#d1d1d1"
     inkscape:document-units="mm"
     showgrid="false"
     inkscape:zoom="2.3786088"
     inkscape:cx="135.79366"
     inkscape:cy="102.37076"
     inkscape:window-width="1280"
     inkscape:window-height="730"
     inkscape:window-x="-6"
     inkscape:window-y="-6"
     inkscape:window-maximized="1"
     inkscape:current-layer="layer5" />
  <defs
     id="defs2">
    <linearGradient
       inkscape:collect="always"
       id="linearGradient9923">
      <stop
         style="stop-color:#ffe466;stop-opacity:0.76595747;"
         offset="0"
         id="stop9919" />
      <stop
         style="stop-color:#ff00ff;stop-opacity:0.30319148;"
         offset="1"
         id="stop9921" />
    </linearGradient>
    <linearGradient
       inkscape:collect="always"
       id="linearGradient9839">
      <stop
         style="stop-color:#d7d7ff;stop-opacity:0;"
         offset="0"
         id="stop9835" />
      <stop
         style="stop-color:#b2006e;stop-opacity:0.67553192;"
         offset="0.91150445"
         id="stop9837" />
    </linearGradient>
    <inkscape:perspective
       sodipodi:type="inkscape:persp3d"
       inkscape:vp_x="22.691835 : 71.437625 : 1"
       inkscape:vp_y="0 : 1000 : 0"
       inkscape:vp_z="107.69183 : 71.437625 : 1"
       inkscape:persp3d-origin="65.191835 : 62.270958 : 1"
       id="perspective9240" />
    <rect
       x="16.396139"
       y="32.371864"
       width="39.518899"
       height="34.473933"
       id="rect9164" />
    <rect
       x="16.816553"
       y="76.094901"
       width="15.134898"
       height="46.245519"
       id="rect8517" />
    <linearGradient
       inkscape:collect="always"
       id="linearGradient8459">
      <stop
         style="stop-color:#e9e9ff;stop-opacity:1;"
         offset="0"
         id="stop8455" />
      <stop
         style="stop-color:#e9e9ff;stop-opacity:0;"
         offset="1"
         id="stop8457" />
    </linearGradient>
    <linearGradient
       inkscape:collect="always"
       id="linearGradient8387">
      <stop
         style="stop-color:#d7d7ff;stop-opacity:1;"
         offset="0"
         id="stop8383" />
      <stop
         style="stop-color:#2aff2a;stop-opacity:1"
         offset="1"
         id="stop8385" />
    </linearGradient>
    <inkscape:perspective
       sodipodi:type="inkscape:persp3d"
       inkscape:vp_x="15.402799 : 42.182953 : 1"
       inkscape:vp_y="0 : 1000 : 0"
       inkscape:vp_z="154.02406 : 43.629001 : 1"
       inkscape:persp3d-origin="85.342584 : 34.462334 : 1"
       id="perspective8307" />
    <linearGradient
       inkscape:collect="always"
       id="linearGradient5979">
      <stop
         style="stop-color:#000000;stop-opacity:1;"
         offset="0"
         id="stop5975" />
      <stop
         style="stop-color:#000000;stop-opacity:0;"
         offset="1"
         id="stop5977" />
    </linearGradient>
    <linearGradient
       inkscape:collect="always"
       id="linearGradient5950">
      <stop
         style="stop-color:#008066;stop-opacity:1;"
         offset="0.30678466"
         id="stop5946" />
      <stop
         style="stop-color:#008066;stop-opacity:0;"
         offset="1"
         id="stop5948" />
    </linearGradient>
    <linearGradient
       inkscape:collect="always"
       id="linearGradient5920">
      <stop
         style="stop-color:#008066;stop-opacity:1;"
         offset="0"
         id="stop5916" />
      <stop
         style="stop-color:#008066;stop-opacity:0;"
         offset="1"
         id="stop5918" />
    </linearGradient>
    <linearGradient
       id="linearGradient5384"
       inkscape:swatch="gradient">
      <stop
         style="stop-color:#ff5555;stop-opacity:1;"
         offset="0.20648968"
         id="stop5380" />
      <stop
         style="stop-color:#ff5555;stop-opacity:0;"
         offset="1"
         id="stop5382" />
    </linearGradient>
    <linearGradient
       id="linearGradient5354"
       inkscape:swatch="gradient">
      <stop
         style="stop-color:#ff5555;stop-opacity:1;"
         offset="0"
         id="stop5350" />
      <stop
         style="stop-color:#ff5555;stop-opacity:0;"
         offset="1"
         id="stop5352" />
    </linearGradient>
    <rect
       x="44.563864"
       y="21.441105"
       width="198.01491"
       height="55.074209"
       id="rect113" />
    <linearGradient
       inkscape:collect="always"
       xlink:href="#linearGradient5920"
       id="linearGradient5922"
       x1="11.376078"
       y1="32.864347"
       x2="15.025931"
       y2="32.864347"
       gradientUnits="userSpaceOnUse" />
    <linearGradient
       inkscape:collect="always"
       xlink:href="#linearGradient5920"
       id="linearGradient5924"
       x1="15.072614"
       y1="30.843761"
       x2="19.171868"
       y2="30.843761"
       gradientUnits="userSpaceOnUse" />
    <linearGradient
       inkscape:collect="always"
       xlink:href="#linearGradient5920"
       id="linearGradient5926"
       x1="9.9702117"
       y1="30.060415"
       x2="13.456924"
       y2="30.060415"
       gradientUnits="userSpaceOnUse" />
    <linearGradient
       inkscape:collect="always"
       xlink:href="#linearGradient5920"
       id="linearGradient5928"
       x1="18.277714"
       y1="31.251754"
       x2="25.926131"
       y2="31.251754"
       gradientUnits="userSpaceOnUse" />
    <linearGradient
       inkscape:collect="always"
       xlink:href="#linearGradient5920"
       id="linearGradient5930"
       x1="26.96848"
       y1="21.897499"
       x2="59.487847"
       y2="21.897499"
       gradientUnits="userSpaceOnUse" />
    <linearGradient
       inkscape:collect="always"
       xlink:href="#linearGradient5920"
       id="linearGradient5932"
       x1="62.051429"
       y1="22.553649"
       x2="64.055201"
       y2="22.553649"
       gradientUnits="userSpaceOnUse" />
    <linearGradient
       inkscape:collect="always"
       xlink:href="#linearGradient5920"
       id="linearGradient5934"
       x1="26.193346"
       y1="35.502663"
       x2="50.923092"
       y2="35.502663"
       gradientUnits="userSpaceOnUse" />
    <linearGradient
       inkscape:collect="always"
       xlink:href="#linearGradient5920"
       id="linearGradient5936"
       x1="50.339715"
       y1="27.1979"
       x2="55.264052"
       y2="27.1979"
       gradientUnits="userSpaceOnUse" />
    <linearGradient
       inkscape:collect="always"
       xlink:href="#linearGradient5920"
       id="linearGradient5938"
       x1="54.597207"
       y1="35.66157"
       x2="57.422204"
       y2="35.66157"
       gradientUnits="userSpaceOnUse" />
    <linearGradient
       inkscape:collect="always"
       xlink:href="#linearGradient5920"
       id="linearGradient5940"
       x1="23.77795"
       y1="27.311715"
       x2="27.960863"
       y2="27.311715"
       gradientUnits="userSpaceOnUse" />
    <linearGradient
       inkscape:collect="always"
       xlink:href="#linearGradient5920"
       id="linearGradient5942"
       x1="30.641218"
       y1="27.418662"
       x2="32.046409"
       y2="27.418662"
       gradientUnits="userSpaceOnUse" />
    <linearGradient
       inkscape:collect="always"
       xlink:href="#linearGradient5950"
       id="linearGradient5944"
       x1="56.943529"
       y1="20.879772"
       x2="61.095948"
       y2="20.879772"
       gradientUnits="userSpaceOnUse" />
    <linearGradient
       inkscape:collect="always"
       xlink:href="#linearGradient5979"
       id="linearGradient6029"
       x1="11.124616"
       y1="32.869678"
       x2="15.158321"
       y2="32.869678"
       gradientUnits="userSpaceOnUse" />
    <linearGradient
       inkscape:collect="always"
       xlink:href="#linearGradient5979"
       id="linearGradient6031"
       x1="14.900597"
       y1="30.792734"
       x2="19.322054"
       y2="30.792734"
       gradientUnits="userSpaceOnUse" />
    <linearGradient
       inkscape:collect="always"
       xlink:href="#linearGradient5979"
       id="linearGradient6033"
       x1="9.8375683"
       y1="30.043282"
       x2="13.638106"
       y2="30.043282"
       gradientUnits="userSpaceOnUse" />
    <linearGradient
       inkscape:collect="always"
       xlink:href="#linearGradient5979"
       id="linearGradient6035"
       x1="18.13965"
       y1="31.263971"
       x2="26.058651"
       y2="31.263971"
       gradientUnits="userSpaceOnUse" />
    <linearGradient
       inkscape:collect="always"
       xlink:href="#linearGradient5979"
       id="linearGradient6037"
       x1="26.834465"
       y1="21.89757"
       x2="59.603043"
       y2="21.89757"
       gradientUnits="userSpaceOnUse" />
    <linearGradient
       inkscape:collect="always"
       xlink:href="#linearGradient5979"
       id="linearGradient6039"
       x1="61.894104"
       y1="22.530031"
       x2="64.248672"
       y2="22.530031"
       gradientUnits="userSpaceOnUse" />
    <linearGradient
       inkscape:collect="always"
       xlink:href="#linearGradient5979"
       id="linearGradient6041"
       x1="25.990248"
       y1="35.50536"
       x2="51.055523"
       y2="35.50536"
       gradientUnits="userSpaceOnUse" />
    <linearGradient
       inkscape:collect="always"
       xlink:href="#linearGradient5979"
       id="linearGradient6043"
       x1="50.20644"
       y1="27.286512"
       x2="55.39872"
       y2="27.286512"
       gradientUnits="userSpaceOnUse" />
    <linearGradient
       inkscape:collect="always"
       xlink:href="#linearGradient5979"
       id="linearGradient6045"
       x1="54.464828"
       y1="35.672874"
       x2="57.554379"
       y2="35.672874"
       gradientUnits="userSpaceOnUse" />
    <linearGradient
       inkscape:collect="always"
       xlink:href="#linearGradient5979"
       id="linearGradient6047"
       x1="23.645779"
       y1="27.311604"
       x2="28.09314"
       y2="27.311604"
       gradientUnits="userSpaceOnUse" />
    <linearGradient
       inkscape:collect="always"
       xlink:href="#linearGradient5979"
       id="linearGradient6049"
       x1="30.179775"
       y1="27.418667"
       x2="32.179001"
       y2="27.418667"
       gradientUnits="userSpaceOnUse" />
    <linearGradient
       inkscape:collect="always"
       xlink:href="#linearGradient5979"
       id="linearGradient6051"
       x1="56.868801"
       y1="20.879436"
       x2="61.232105"
       y2="20.879436"
       gradientUnits="userSpaceOnUse" />
    <linearGradient
       inkscape:collect="always"
       xlink:href="#linearGradient8387"
       id="linearGradient8389"
       x1="4.783083"
       y1="10.567276"
       x2="6.8965383"
       y2="48.275768"
       gradientUnits="userSpaceOnUse"
       gradientTransform="matrix(1.6160347,0,0,1,-2.3933214,0)" />
    <linearGradient
       inkscape:collect="always"
       xlink:href="#linearGradient8459"
       id="linearGradient8461"
       x1="10.122338"
       y1="18.019987"
       x2="11.012215"
       y2="17.797518"
       gradientUnits="userSpaceOnUse" />
    <radialGradient
       inkscape:collect="always"
       xlink:href="#linearGradient9839"
       id="radialGradient9330"
       cx="17.413372"
       cy="20.984512"
       fx="17.413372"
       fy="20.984512"
       r="4.1367331"
       gradientUnits="userSpaceOnUse"
       gradientTransform="matrix(-0.57207173,-0.68257756,0.75197189,-0.63023142,10.42217,45.578222)"
       spreadMethod="pad" />
    <linearGradient
       inkscape:collect="always"
       xlink:href="#linearGradient9923"
       id="linearGradient9925"
       x1="88.653885"
       y1="31.590595"
       x2="-0.7786414"
       y2="30.478251"
       gradientUnits="userSpaceOnUse"
       gradientTransform="matrix(0.92694229,0,0,0.92701706,2.0816825,2.3911892)" />
  </defs>
  <g
     inkscape:groupmode="layer"
     id="layer4"
     inkscape:label="Слой 4"
     sodipodi:insensitive="true">
    <rect
       style="opacity:1;fill:url(#linearGradient9925);fill-opacity:1;fill-rule:nonzero;stroke:#000000;stroke-width:0.245263;stroke-opacity:0.44086"
       id="rect9909"
       width="84.75473"
       height="54.754738"
       x="0.12263153"
       y="0.12263153" />
  </g>
  <g
     inkscape:label="Слой 1"
     inkscape:groupmode="layer"
     id="layer1"
     sodipodi:insensitive="true">
    <text
       xml:space="preserve"
       transform="matrix(0.26458333,0,0,0.26458333,13.236904,2.2246898)"
       id="text111"
       style="font-size:16px;white-space:pre;shape-inside:url(#rect113);display:inline;fill:#000000"><tspan
         x="44.564453"
         y="35.999409"
         id="tspan12353"><tspan
           style="font-family:Georgia;-inkscape-font-specification:Georgia;fill:#ff5555"
           id="tspan12351">Рябкин А.В., ИУ5Ц-81Б</tspan></tspan></text>
  </g>
  <g
     inkscape:groupmode="layer"
     id="layer2"
     inkscape:label="Слой 2"
     sodipodi:insensitive="true">
    <path
       style="opacity:1;mix-blend-mode:normal;fill:url(#linearGradient5922);fill-opacity:1;fill-rule:nonzero;stroke:url(#linearGradient6029);stroke-width:0.264583;stroke-opacity:0.44086"
       id="path1104"
       d="m 11.376078,33.633179 c 0.160807,0.397217 0.440949,0.698802 0.818129,0.903709 0.443001,0.240665 0.893594,0.467079 1.340392,0.700619 0.390792,0.09923 0.902712,0.209907 1.233901,-0.108225 0.183251,-0.176025 0.182967,-0.300223 0.249405,-0.535308 0.06801,-0.826754 -0.309169,-1.581372 -0.641018,-2.313837 -0.09872,-0.201395 -0.268852,-0.583234 -0.421465,-0.751742 -0.259456,-0.286477 -0.593596,-0.498758 -0.853744,-0.784608 -0.09007,-0.09897 -0.154684,-0.21857 -0.237696,-0.32353 0,0 -0.07355,-0.03147 -0.07355,-0.03147 v 0 c 0.101801,0.128048 0.33949,0.300998 0.183895,0.474001 -0.05332,0.05929 -0.183254,0.05328 -0.200018,0.131242 -0.01589,0.07391 0.265505,0.662244 0.273208,0.679222 0.340301,0.733912 0.749798,1.476457 0.810255,2.296589 -0.03129,0.189423 -0.0195,0.3224 -0.162876,0.466836 -0.28217,0.284258 -0.749346,0.169508 -1.079234,0.08003 0.223035,0.147214 0.452229,0.285496 0.669104,0.44164 0.08409,0.06054 -0.184148,-0.09606 -0.269905,-0.154226 -0.192892,-0.130823 -0.388745,-0.318847 -0.498509,-0.528034 -0.01695,-0.0323 -0.01951,-0.07031 -0.02927,-0.105458 0,0 -1.111003,-0.537459 -1.111003,-0.537459 z" />
    <path
       style="opacity:1;mix-blend-mode:normal;fill:url(#linearGradient5924);fill-opacity:1;fill-rule:nonzero;stroke:url(#linearGradient6031);stroke-width:0.264583;stroke-opacity:0.44086"
       id="path1106"
       d="m 15.072614,28.730863 c 0.100187,0.620189 0.368071,1.182944 0.664044,1.730145 0.302939,0.556625 0.724719,1.027684 1.170249,1.472282 0.567913,0.466275 0.295851,0.255754 1.65388,0.984797 0.134838,0.07239 0.410089,0.03992 0.517651,-0.07254 0.04882,-0.05104 0.06229,-0.126781 0.09343,-0.190172 -0.399202,-0.677744 -0.474322,-0.398685 -0.120016,-0.858626 0,0 -0.06874,-0.04092 -0.06874,-0.04092 v 0 c -0.37448,0.485881 -0.100734,0.303062 -0.9754,0.154379 -0.138091,0.02223 -0.273962,0.06206 -0.413538,0.0711 -0.44443,0.02878 -1.79511,-0.946637 0.908242,0.640305 0.06461,0.03793 -0.127564,-0.0786 -0.191347,-0.117904 -0.528843,-0.41434 -0.989111,-0.911466 -1.338017,-1.488067 -0.265391,-0.491273 -0.550938,-1.026263 -0.546175,-1.599551 0,0 -1.35426,-0.685229 -1.35426,-0.685229 z" />
    <path
       style="opacity:1;mix-blend-mode:normal;fill:url(#linearGradient5926);fill-opacity:1;fill-rule:nonzero;stroke:url(#linearGradient6033);stroke-width:0.264583;stroke-opacity:0.44086"
       id="path1108"
       d="m 11.59265,32.267363 c -0.347326,0.05786 -0.761519,0.196485 -1.115029,0.123603 -0.064,-0.0132 -0.121058,-0.04925 -0.181587,-0.07387 0.33911,0.175328 0.65498,0.40582 1.017328,0.525983 0.08039,0.02666 -0.09069,-0.145489 -0.114791,-0.226684 -0.03252,-0.109559 -0.05099,-0.224459 -0.05305,-0.338728 -0.01031,-0.569978 0.21424,-1.078621 0.426696,-1.592675 0.282593,-0.643924 0.706297,-1.204232 1.08614,-1.789739 0.123697,-0.190672 0.280703,-0.366935 0.356568,-0.581181 0.622073,-1.756746 -0.46875,0.246552 0.441999,-1.287201 0,0 -0.06872,-0.04096 -0.06872,-0.04096 v 0 c -1.345825,1.344734 0.50905,-0.400542 -1.211523,0.829982 -0.190268,0.136078 -0.32912,0.33352 -0.476619,0.515077 -0.444689,0.547373 -0.794835,1.172427 -1.132893,1.787888 -0.281533,0.59372 -0.674719,1.24614 -0.5835378,1.933432 0.01238,0.09331 0.00196,0.213897 0.076049,0.271957 0.400552,0.313889 0.865023,0.536292 1.297534,0.804439 0.268366,0.02191 0.296693,-0.01516 0.542766,-0.09219 0.195516,-0.0612 0.401191,-0.07756 0.59561,-0.142444 0,0 -0.902939,-0.626684 -0.902939,-0.626684 z" />
    <path
       style="opacity:1;mix-blend-mode:normal;fill:url(#linearGradient5928);fill-opacity:1;fill-rule:nonzero;stroke:url(#linearGradient6035);stroke-width:0.264583;stroke-opacity:0.44086"
       id="path1110"
       d="m 18.277715,29.42572 c 0.250309,1.027795 0.48388,2.058479 0.657089,3.102197 0.06979,0.54425 0.143193,1.090089 0.151047,1.639715 0.0012,0.08713 0.01264,0.434965 -0.06011,0.550707 -0.01251,0.0199 -0.04632,-0.0081 -0.06949,-0.01217 0.443285,0.20747 0.856794,0.496874 1.329853,0.622414 0.113525,0.03013 -0.119709,-0.203269 -0.162537,-0.312637 -0.06073,-0.155091 -0.106675,-0.315968 -0.146915,-0.477594 -0.154711,-0.621395 -0.212376,-1.261237 -0.276243,-1.896288 0.0056,-0.621088 0.0289,-1.272278 0.308789,-1.843333 0.104714,-0.213646 0.240989,-0.438457 0.511693,-0.443675 0.09209,-0.0019 0.173782,0.06109 0.260672,0.09164 -0.364694,-0.194694 -0.711486,-0.427466 -1.094083,-0.584076 -0.128497,-0.0526 0.216071,0.174607 0.319647,0.267073 0.100306,0.08955 0.190923,0.189603 0.291658,0.278667 0.539262,0.476785 1.347419,0.864077 1.918729,1.099884 0.08179,0.03376 0.162197,-0.07075 0.243295,-0.106127 0.05236,-0.0884 0.119525,-0.16958 0.157095,-0.265213 0.08514,-0.216723 0.145663,-0.644552 0.176672,-0.861708 0.05779,-0.404741 0.102607,-0.810626 0.165005,-1.214806 0.02056,-0.07426 0.02802,-0.153466 0.06167,-0.222787 0.01569,-0.03231 0.04518,-0.07398 0.08098,-0.07109 0.03254,0.0026 0.08291,0.09646 0.05367,0.08193 -0.462851,-0.230105 -0.904155,-0.501798 -1.365824,-0.734264 -0.07604,-0.03829 0.140381,0.09669 0.206403,0.150453 0.07714,0.06281 0.148372,0.132548 0.222558,0.198824 0.231148,0.221956 0.446641,0.459179 0.669294,0.689472 0.10251,0.106027 0.254881,0.276725 0.386726,0.350539 0.610408,0.341736 1.234381,0.658656 1.851572,0.987983 0.07963,-0.02077 0.165534,-0.02503 0.2389,-0.06231 0.458271,-0.232918 0.516229,-0.866105 0.560601,-1.308761 -0.01911,-0.553119 -0.241611,-1.068708 -0.755907,-1.333312 -0.537756,-0.276675 -1.089312,-0.525661 -1.633968,-0.788493 0.01299,0.0999 0.06078,0.201343 0.03896,0.299688 -0.03954,0.178242 -0.288478,0.347163 -0.407205,0.446749 0,0 0.06784,0.0424 0.06784,0.0424 v 0 c 0.08267,-0.0691 0.147645,-0.168106 0.248007,-0.207309 0.41703,-0.162901 0.649146,0.03524 1.054515,0.185819 -2.403007,-1.446778 -0.9236,-0.633402 -0.669305,-0.340772 0.198842,0.228817 0.290969,0.501128 0.314851,0.799848 0.0034,0.103148 0.0181,0.206537 0.01029,0.309449 -0.01929,0.254312 -0.127162,0.694153 -0.415009,0.783058 -0.05404,0.0167 -0.112992,0.0054 -0.169487,0.0081 2.735024,1.686946 1.383001,0.920353 0.874555,0.486881 -0.257664,-0.219668 -0.484276,-0.474221 -0.721879,-0.714439 -0.634688,-0.642379 -0.934873,-0.775128 -2.039431,-1.284369 -0.0499,-0.02302 -0.107995,0.04266 -0.139668,0.08756 -0.05253,0.07447 -0.03794,0.379211 -0.03842,0.422994 -0.01187,0.555252 -0.01329,1.513078 -0.319172,1.983039 -0.03978,0.06111 -0.108682,0.09725 -0.163023,0.14587 -0.615554,0.1099 -0.240923,0.0046 1.001419,0.760804 0.103534,0.06302 -0.207283,-0.127055 -0.301371,-0.203469 -0.108499,-0.08812 -0.203536,-0.19163 -0.30434,-0.288454 -0.779413,-0.748652 -0.05038,-0.145865 -1.973007,-1.244632 -0.100725,0.0046 -0.209071,-0.02508 -0.302173,0.0136 -0.237985,0.09893 -0.361075,0.412488 -0.430106,0.622168 -0.204063,0.619845 -0.221452,1.286156 -0.250852,1.930474 0.04743,0.785003 0.132877,1.559131 0.260423,2.33531 0.01761,0.107173 -0.02898,0.255263 0.05772,0.32067 0.46701,0.352322 1.015394,0.581282 1.523092,0.871924 0.02221,-0.04271 0.05838,-0.08071 0.06665,-0.128146 0.02331,-0.133781 -0.02437,-0.547661 -0.03821,-0.639635 -0.08927,-0.59323 -0.253308,-1.173181 -0.374715,-1.759784 -0.141782,-0.648165 -0.277454,-1.295931 -0.378454,-1.951984 -0.04265,-0.277008 -0.07965,-0.536406 -0.08611,-0.815332 -0.0017,-0.07158 0.0066,-0.143047 0.0099,-0.214569 0,0 -1.264827,-0.636403 -1.264827,-0.636403 z" />
    <path
       style="opacity:1;mix-blend-mode:normal;fill:url(#linearGradient5930);fill-opacity:1;fill-rule:nonzero;stroke:url(#linearGradient6037);stroke-width:0.264583;stroke-opacity:0.44086"
       id="path1112"
       d="m 28.391773,24.352617 c -0.663136,-0.04029 -0.924179,0.496736 -1.150961,1.025893 -0.136676,0.447436 -0.424918,1.275636 -0.171773,1.722139 0.0466,0.08219 0.129376,0.137723 0.194067,0.206584 0.550309,0.285334 1.075385,0.625768 1.650925,0.856001 0.09493,0.03798 0.204005,-0.03422 0.296966,-0.07679 0.524071,-0.239985 0.71293,-0.871453 0.906682,-1.36099 0.285073,-0.635732 0.341458,-1.432301 0.676402,-2.041743 0.03317,-0.06036 0.08147,-0.111069 0.122206,-0.166604 0.03712,-0.01223 0.07754,-0.0563 0.11136,-0.03671 0.04771,0.02764 0.127982,0.168403 0.07754,0.146125 -0.465495,-0.20559 -0.871061,-0.542694 -1.351992,-0.709001 -0.105267,-0.0364 0.110482,0.193838 0.156094,0.295454 0.129384,0.288238 0.17431,0.474059 0.26594,0.77793 0.08939,0.455954 0.289105,1.029811 0.234551,1.502092 0.553955,0.248193 1.071417,0.603732 1.661864,0.744575 0.117493,0.02803 -0.03757,-0.238892 -0.04683,-0.359328 -0.01254,-0.163224 -0.01765,-0.327065 -0.01849,-0.490769 -0.0031,-0.600419 0.0817,-1.164335 0.191907,-1.752515 0.143156,-0.468863 0.273749,-1.113263 0.779576,-1.342033 0.199033,-0.09002 0.305909,-0.04621 0.512197,-0.01999 0.09708,0.03379 0.197458,0.05929 0.291237,0.101381 0.103582,0.0465 0.398566,0.21772 0.298821,0.163481 -0.411615,-0.223826 -0.798677,-0.500064 -1.23443,-0.672243 -0.132011,-0.05216 0.209434,0.193012 0.299416,0.302791 0.253968,0.309845 0.297648,0.456512 0.47144,0.817021 0.218395,0.59115 0.47952,1.356712 0.368387,1.998421 -0.01169,0.06754 -0.04185,0.130544 -0.06278,0.195816 -0.635617,0.220044 -0.303631,0.08448 1.540872,0.810318 0.08029,0.0316 -0.117549,-0.129521 -0.155239,-0.20714 -0.235042,-0.484036 -0.243059,-1.047405 -0.275137,-1.569692 0.01566,-0.231802 0.01543,-0.465231 0.047,-0.695406 0.114906,-0.837551 0.400995,-1.723509 0.89657,-2.416737 0.09403,-0.131528 0.211402,-0.244684 0.317105,-0.367027 0.268219,-0.215236 0.570995,-0.434013 0.92805,-0.269779 0.09433,0.04339 0.344845,0.228029 0.24995,0.185889 -0.442651,-0.196561 -0.833028,-0.518438 -1.298695,-0.651591 -0.130799,-0.0374 0.147101,0.22889 0.22065,0.343335 0.364723,0.774927 0.47076,1.634406 0.611695,2.470659 0.151472,0.759777 0.509741,0.845348 1.710992,0.907457 0.156501,0.0081 0.03742,-0.311202 0.05266,-0.467169 0.122672,-1.255365 -0.02,-0.04113 0.150207,-1.399141 0.154813,-0.862104 0.271105,-1.759653 0.650928,-2.560138 0.05952,-0.125435 0.122637,-0.251262 0.207473,-0.361167 0.0543,-0.07035 0.135943,-0.114516 0.203914,-0.171774 0.522036,0.09512 1.589498,0.305191 -1.221184,-0.663004 -0.09786,-0.03371 0.116012,0.173272 0.154432,0.269379 0.05316,0.132966 0.08665,0.273325 0.118353,0.412969 0.100296,0.44174 0.112215,0.674304 0.162772,1.130844 0.05646,0.585701 0.0451,1.175849 0.110752,1.760843 0.03022,0.269311 0.07208,0.559592 0.178379,0.813234 0.03632,0.08667 0.09513,0.162087 0.142695,0.24313 0.598289,0.342787 1.161249,0.756371 1.79487,1.02836 0.09105,0.03908 0.186058,-0.07924 0.25835,-0.146994 0.386606,-0.362341 0.581938,-1.352527 0.70586,-1.846152 0.22619,-0.949971 0.419085,-1.907399 0.598938,-2.867072 0.01659,-0.06969 0.02535,-0.141716 0.04975,-0.209063 0.0038,-0.01046 0.05733,-0.172446 0.127931,-0.109174 0.02924,0.0262 0.09363,0.119555 0.05835,0.102325 -1.299856,-0.634809 -1.800212,-1.138575 -1.102185,-0.493611 0.812188,0.893159 1.731295,1.405635 2.859378,1.944326 0.125524,0.05994 0.277836,0.0606 0.415391,0.03992 0.141766,-0.02132 0.265527,-0.108173 0.398293,-0.162259 0.112445,-0.112735 0.241765,-0.21085 0.337338,-0.338205 0.112604,-0.150053 0.191312,-0.322842 0.281988,-0.487081 0.37338,-0.676309 0.619646,-1.355954 0.857903,-2.087108 0.0331,-0.09019 0.14074,-0.445467 0.242412,-0.552037 0.02024,-0.02122 0.112982,-3.97e-4 0.08689,-0.0138 -0.518067,-0.266095 -1.032391,-0.545992 -1.577263,-0.751699 -0.06199,-0.0234 0.05443,0.121149 0.07441,0.184323 0.03027,0.0957 0.0507,0.194246 0.07605,0.291369 0.24819,0.993799 0.47389,1.993167 0.712629,2.989312 0.038,0.162923 0.07725,0.32556 0.114006,0.488768 0.05219,0.231726 0.102444,0.463885 0.153964,0.695763 0.01146,0.05162 -0.01151,0.125863 0.03244,0.155288 1.689433,1.131408 1.462386,1.554922 1.72558,0.686349 -0.0091,-0.761707 -0.04229,-1.530269 0.163473,-2.273162 0.04541,-0.163967 0.112186,-0.321256 0.168278,-0.481885 0.186732,-0.396152 0.735526,-1.258947 1.293696,-1.114877 0.08059,0.0208 0.140351,0.0895 0.210524,0.134246 -0.451438,-0.22931 -0.871795,-0.534452 -1.354313,-0.687931 -0.11966,-0.03806 0.143309,0.20739 0.198361,0.320246 0.21272,0.436083 0.275823,0.943729 0.334555,1.419253 0.03018,0.881793 -0.360569,0.46672 1.703454,1.107386 0.08941,0.02775 -0.02877,-0.185284 -0.03451,-0.278726 -0.02689,-0.437383 -0.0021,-0.459083 0.04899,-0.928228 0.138653,-0.486653 0.305835,-1.433184 0.896046,-1.604442 0.07822,-0.0227 0.16973,-0.01722 0.243782,0.0167 0.08307,0.03805 0.133704,0.124557 0.200559,0.186835 -0.449977,-0.22312 -0.863732,-0.543363 -1.349925,-0.66936 -0.142481,-0.03692 0.15983,0.24774 0.227452,0.378473 0.07596,0.146844 0.14062,0.299446 0.202509,0.452751 0.181907,0.450594 0.313584,0.922472 0.462497,1.384503 0.223983,0.625251 0.405318,1.327096 0.908984,1.797579 0.08802,0.08223 0.192289,0.145133 0.288433,0.2177 0.654944,0.34396 1.285166,0.739798 1.964835,1.031879 0.112345,0.04828 0.247238,3.97e-4 0.365575,-0.03041 0.638093,-0.166062 1.071274,-0.739114 1.460162,-1.222846 0.412779,-0.606066 0.833133,-1.22681 1.081624,-1.923043 0.06717,-0.188221 0.209704,-0.758068 0.261374,-0.958399 0.112562,-0.592116 0.201261,-1.284462 -0.173413,-1.808141 -0.04723,-0.06602 -0.109572,-0.119794 -0.164357,-0.17969 -0.556564,-0.308897 -1.09035,-0.662976 -1.669692,-0.926689 -0.06751,-0.03073 -0.149046,0.02985 -0.211019,0.0706 -0.348737,0.229331 -0.415308,0.732629 -0.495424,1.100018 -0.121907,0.602227 -0.110469,1.226958 0.0696,1.817584 0.0339,0.111191 0.08193,0.217572 0.122896,0.326358 0.636154,1.19121 1.497364,1.386988 2.749952,2.059572 -0.04293,-0.0694 -0.285363,-0.410345 -0.256188,-0.537789 0.01598,-0.06985 0.119409,-0.08078 0.170156,-0.131368 0.0555,-0.05532 0.0975,-0.122706 0.146251,-0.18406 0,0 -0.06868,-0.04102 -0.06868,-0.04102 v 0 c -0.03272,0.0411 -0.225909,0.314051 -0.313722,0.311237 -0.302284,-0.0097 -0.817197,-0.354051 -1.030264,-0.475438 3.04164,1.786792 1.282878,0.814478 0.919483,0.509785 -0.25477,-0.213615 -0.471903,-0.465492 -0.64815,-0.747321 -0.05556,-0.106692 -0.118769,-0.209738 -0.166674,-0.320078 -0.245499,-0.565439 -0.293129,-1.180478 -0.203319,-1.785627 0.06216,-0.268768 0.114977,-0.581021 0.301358,-0.800363 0.03668,-0.04317 0.08282,-0.0827 0.13621,-0.101648 0.04698,-0.01667 0.190492,0.02864 0.149542,2.14e-4 -0.413623,-0.287107 -0.858279,-0.526698 -1.28742,-0.790047 0.06709,0.04891 0.142574,0.08802 0.201282,0.146726 0.446537,0.44656 0.326446,1.124984 0.225145,1.678252 -0.03639,0.152611 -0.06273,0.307972 -0.10916,0.457831 -0.261278,0.84325 -0.723685,1.623108 -1.25172,2.322949 -0.323032,0.370617 -0.634674,0.748222 -1.109257,0.931453 -0.11924,0.04604 -0.246282,0.07522 -0.373621,0.0863 -0.113009,0.0098 -0.426455,-0.09706 -0.339437,-0.02429 0.391597,0.327483 0.861706,0.547575 1.292559,0.821363 -0.272508,-0.161774 -0.389644,-0.202827 -0.604184,-0.447602 -0.367165,-0.418908 -0.529244,-0.990175 -0.729938,-1.49535 -0.161346,-0.47116 -0.324281,-0.941916 -0.492024,-1.410846 -0.0075,-0.02093 -0.282853,-0.800711 -0.332412,-0.841789 -0.557755,-0.462317 -1.193107,-0.822078 -1.789661,-1.233118 -0.09313,-0.02963 -0.181649,-0.08936 -0.279373,-0.08889 -0.22452,0.0011 -0.393541,0.186462 -0.504801,0.352373 -0.306457,0.456985 -0.423765,1.018162 -0.577895,1.535326 -0.03522,0.170157 -0.07045,0.340314 -0.105669,0.510471 -0.02127,0.125565 -0.03836,0.251907 -0.06379,0.376694 -0.01479,0.07259 -0.117536,0.172476 -0.05678,0.214871 2.301846,1.606277 1.752891,1.418903 1.602203,0.575692 -0.07681,-0.503231 -0.162071,-1.001835 -0.332372,-1.483886 -0.04134,-0.117016 -0.04255,-0.268276 -0.140153,-0.344924 -0.553926,-0.434989 -1.179668,-0.769796 -1.769501,-1.154694 -0.08884,-0.01613 -0.176483,-0.05511 -0.266526,-0.04838 -0.09139,0.0068 -0.179263,0.04544 -0.260559,0.08775 -0.497448,0.258878 -0.754038,0.799375 -0.963858,1.287729 -0.05327,0.169209 -0.115158,0.335944 -0.159817,0.507627 -0.185036,0.711334 -0.22371,1.447499 -0.347771,2.168981 0.578861,0.268521 -1.400021,-0.650223 1.560931,0.955558 0.05609,0.03042 -0.0735,-0.105359 -0.09881,-0.163927 -0.165968,-0.38415 -0.224568,-0.80981 -0.337161,-1.209462 -0.237334,-0.986387 -0.517523,-1.965489 -0.682141,-2.967349 -0.01259,-0.09225 -0.02853,-0.184101 -0.03778,-0.276745 -0.0064,-0.06424 0.04462,-0.157689 -0.0091,-0.193465 -2.176012,-1.448604 -1.576385,-1.416005 -1.639985,-0.532759 -0.0096,0.133779 -0.02903,0.266675 -0.04355,0.400012 -0.1876,0.867582 -0.432289,1.87641 -1.202346,2.419606 -0.128733,0.09081 -0.280527,0.143451 -0.420791,0.215176 -0.132773,0.02327 -0.263535,0.07168 -0.398322,0.06982 -0.129931,-0.0018 -0.481515,-0.163459 -0.381405,-0.08061 0.334106,0.276496 0.729801,0.469701 1.108007,0.681922 0.132122,0.07414 -0.250048,-0.17166 -0.368028,-0.266701 -0.116933,-0.09419 -0.227862,-0.195873 -0.335793,-0.300263 -0.09719,-0.09401 -0.186042,-0.196285 -0.279062,-0.294427 -0.639725,-0.722313 -0.342421,-0.435838 -1.979572,-1.316977 -0.11439,-0.06157 -0.238636,0.04553 -0.278069,0.135327 -0.01984,0.04515 -0.05404,0.377432 -0.05607,0.394871 -0.09674,0.979544 -0.190918,1.964806 -0.456988,2.916428 -0.154099,0.472333 -0.292698,0.997928 -0.618085,1.390801 -0.06171,0.07451 -0.136906,0.141225 -0.222435,0.186436 -0.0542,0.02865 -0.231048,-0.0093 -0.18187,0.02728 0.435888,0.324366 0.920901,0.576879 1.38135,0.865319 -0.0709,-0.07382 -0.155091,-0.136859 -0.212688,-0.221466 -0.481989,-0.707992 -0.438136,-1.805634 -0.505544,-2.621289 -0.04253,-0.810919 -0.06693,-3.88543 -2.069968,-2.722363 -0.05022,0.08506 -0.111636,0.164432 -0.150654,0.255175 -0.125645,0.292196 -0.202102,0.669704 -0.263025,0.973685 -0.14088,0.70296 -0.228031,1.414894 -0.358126,2.11975 -0.118036,0.574557 -0.136914,0.761975 -0.31626,1.298349 -0.04263,0.127489 -0.244774,0.27743 -0.151143,0.373886 0.392801,0.404656 0.944235,0.616917 1.41473,0.927839 0.02652,0.01753 -0.06657,-0.02014 -0.08267,-0.04756 -0.04136,-0.07045 -0.05404,-0.154199 -0.08106,-0.231299 -0.176906,-0.832425 -0.23459,-1.693257 -0.535977,-2.496612 -0.470739,-0.989329 -0.110461,-0.392348 -1.949701,-1.555842 -0.19262,-0.12185 -0.392576,-0.167521 -0.615868,-0.101924 -0.27653,0.08124 -0.411319,0.262913 -0.61205,0.455067 -0.09776,0.136861 -0.205505,0.267106 -0.293262,0.410582 -0.590584,0.965555 -0.837353,2.096368 -0.943774,3.209471 -0.02458,0.53304 -0.03573,1.003846 0.04027,1.531595 0.01281,0.08896 -0.03017,0.217093 0.04537,0.265787 1.762209,1.135875 1.480661,1.507263 1.900195,0.790599 0.110739,-0.801984 -0.10518,-1.605503 -0.370993,-2.357722 -0.126119,-0.28443 -0.432139,-1.004409 -0.6974,-1.186263 -0.58742,-0.402712 -1.212508,-0.747863 -1.828845,-1.104752 -0.102264,-0.05922 -0.212476,-0.105309 -0.32472,-0.142271 -0.106273,-0.03499 -0.218477,-0.04838 -0.327716,-0.07258 -0.103116,0.0064 -0.209468,-0.0071 -0.309353,0.01934 -0.650928,0.172142 -0.75895,1.154436 -0.893903,1.679694 -0.1011,0.581649 -0.176964,1.161625 -0.248211,1.747514 -0.01844,0.151685 -0.03299,0.303979 -0.05789,0.454739 -0.01519,0.09187 -0.137023,0.216881 -0.06222,0.272332 0.499073,0.369948 1.09026,0.595878 1.635392,0.893817 -0.110953,-0.111215 -0.140779,-0.341989 -0.177866,-0.483388 -0.09598,-0.365932 -0.178215,-0.735357 -0.272135,-1.101807 -0.07283,-0.265485 -0.139176,-0.515032 -0.219165,-0.777915 -0.03091,-0.101605 -0.01524,-0.236225 -0.09757,-0.303304 -0.496993,-0.404891 -1.043419,-0.747697 -1.594498,-1.075191 -0.04659,-0.02769 -0.113268,0.0042 -0.159197,0.03301 -0.0463,0.029 -0.06691,0.08638 -0.100365,0.12957 -0.257659,0.76754 -0.271372,1.601411 -0.540739,2.368074 -0.163066,0.38916 -0.314503,0.782853 -0.695405,1.015422 -0.08959,0.0547 -0.191095,0.09226 -0.294058,0.11268 -0.09561,0.01897 -0.365434,-0.0609 -0.292401,0.0037 0.328067,0.289967 0.735462,0.475326 1.103191,0.712988 -0.21716,-0.133641 -0.319808,-0.149249 -0.417994,-0.412443 -0.15992,-0.428678 0.06599,-0.984485 0.186666,-1.392801 0.133416,-0.274805 0.271928,-0.543197 0.499274,-0.755549 0.115596,-0.10797 0.259646,-0.155431 0.38318,-0.248845 0,0 -1.010002,-0.74338 -1.010002,-0.74338 z" />
    <path
       style="opacity:1;mix-blend-mode:normal;fill:url(#linearGradient5932);fill-opacity:1;fill-rule:nonzero;stroke:url(#linearGradient6039);stroke-width:0.264583;stroke-opacity:0.44086"
       id="path1114"
       d="m 62.131532,20.574277 c 0.114271,0.662759 0.437679,1.103474 0.408257,1.824241 -0.01881,0.460857 -0.359164,1.503856 -0.48836,1.937444 0,0 0.360204,0.197059 0.360204,0.197059 v 0 c 0.08015,-0.261346 0.481648,-1.617918 0.616432,-1.871426 0.356626,-0.670765 0.422661,-0.454887 0.886343,-0.876532 0.06137,-0.05581 0.09386,-0.1368 0.140793,-0.2052 0,0 -1.923669,-1.005586 -1.923669,-1.005586 z" />
    <path
       style="opacity:1;mix-blend-mode:normal;fill:url(#linearGradient5934);fill-opacity:1;fill-rule:nonzero;stroke:url(#linearGradient6041);stroke-width:0.264583;stroke-opacity:0.44086"
       id="path1116"
       d="m 27.649712,40.057273 c 0.217488,-0.184443 0.0282,-0.01804 0.285763,-0.268494 0.07481,-0.07274 0.156602,-0.138504 0.227209,-0.215333 0.281053,-0.305814 0.488786,-0.658609 0.695769,-1.015606 0.194061,-0.351957 0.373922,-0.711163 0.54683,-1.073857 0.07413,-0.155493 0.136806,-0.374943 0.286023,-0.476874 -0.609957,-0.294428 -1.219917,-0.588857 -1.829874,-0.883282 0.02532,0.02058 0.06142,0.03256 0.07599,0.06178 0.02851,0.0572 0.03284,0.123549 0.04741,0.185777 0.06053,0.258463 0.121158,0.50832 0.204465,0.760775 0.487159,1.016457 1.114803,1.093105 2.337493,1.741328 0.07026,0.03725 0.15752,0.03419 0.236845,0.02861 0.08203,-0.0058 0.15917,-0.0414 0.238754,-0.0621 0.07572,-0.05196 0.161825,-0.09133 0.227153,-0.155868 0.192887,-0.190543 0.267121,-0.389954 0.375065,-0.635244 0.170625,-0.387712 0.309727,-0.784886 0.445027,-1.185844 0.211545,-0.45857 0.174138,-1.020963 0.417425,-1.460883 0.02748,-0.0105 0.05366,-0.03765 0.08244,-0.03153 0.0328,0.007 0.106288,0.08068 0.07648,0.06534 -0.53535,-0.275439 -1.043829,-0.605356 -1.595345,-0.846804 -0.09948,-0.04355 0.152146,0.15594 0.216717,0.243258 0.195446,0.26429 0.348859,0.576082 0.503934,0.862378 0.517874,1.015026 0.868815,2.114711 1.454295,3.096032 0.10446,0.175085 0.226081,0.339344 0.339122,0.509016 0.124219,0.144873 0.238818,0.298585 0.372655,0.43462 0.621136,0.631341 1.661438,1.12934 2.32206,1.473293 0.200795,0.104545 0.540356,0.106828 0.746072,0.009 0.110551,-0.05258 0.189558,-0.154956 0.28434,-0.232431 0.05834,-0.137298 0.135737,-0.267984 0.175032,-0.411896 0.04939,-0.180887 0.0622,-0.369861 0.0891,-0.555434 0.123476,-0.851866 0.136655,-1.705623 0.175609,-2.56403 0.01656,-0.164441 0.03717,-0.328522 0.04968,-0.493321 0.01315,-0.173251 0.0105,-0.48238 0.04642,-0.670523 0.007,-0.03672 0.07606,-0.08637 0.0429,-0.103613 -1.981268,-1.03043 -2.102014,-1.314204 -1.624451,-0.563541 0.447968,0.879824 0.834522,1.78867 1.272175,2.673585 0.04491,0.183253 0.179686,0.327718 0.242165,0.503005 0.0056,0.01577 -0.0077,0.03257 -0.01162,0.04886 0.588577,0.218051 1.150097,0.531828 1.765729,0.654153 0.127849,0.0254 -0.130029,-0.226012 -0.190947,-0.341249 -0.09775,-0.184901 -0.189976,-0.372671 -0.284964,-0.559006 -0.424514,-1.012257 -0.932421,-2.220913 -0.870323,-3.341336 0.0091,-0.164333 0.05108,-0.325184 0.07662,-0.487773 0.126847,-0.308618 0.300824,-0.683535 0.69468,-0.698769 0.293809,-0.01135 0.808775,0.334824 0.638252,0.243329 -0.398328,-0.213731 -0.797505,-0.425873 -1.196256,-0.63881 0.911101,0.731171 1.379419,1.673482 1.713386,2.767116 0.04903,0.210224 0.105699,0.437218 0.143153,0.651383 0.01132,0.06471 0.02133,0.129812 0.02614,0.195323 0.0019,0.02535 -0.01868,0.09818 -0.0062,0.07601 0.03707,-0.06598 0.01241,-0.240385 0.08239,-0.211556 0.596379,0.245721 1.126876,0.627962 1.690312,0.941943 -0.478102,-0.767188 -0.665554,-1.648335 -0.791562,-2.530546 -0.0387,-0.591812 0.0011,-1.295514 0.492077,-1.71245 0.06943,-0.05896 0.154361,-0.09673 0.231543,-0.145097 0.0932,-0.0042 0.187568,-0.02798 0.279609,-0.01273 0.116054,0.01924 0.434128,0.175956 0.333838,0.114472 -0.397473,-0.243673 -0.796722,-0.494249 -1.2308,-0.664358 -0.153577,-0.06019 0.25636,0.208865 0.371039,0.327427 0.276743,0.286121 0.35157,0.439928 0.559877,0.76884 0.177223,0.303411 0.332972,0.618389 0.468167,0.942546 0.01762,0.04225 0.01074,0.104238 0.04991,0.12795 1.722917,1.043144 1.531186,1.512102 1.720046,0.638199 -0.04604,-0.833911 -0.05087,-1.664716 0.06633,-2.492613 0.02825,-0.110749 0.05076,-0.223123 0.08475,-0.332245 0.02659,-0.08534 0.110752,-0.332513 0.200523,-0.408589 0.0241,-0.02043 0.121819,0.0019 0.0939,-0.01304 -1.744509,-0.924365 -1.939999,-1.294586 -1.516814,-0.630791 0.222999,0.655923 0.333041,1.347557 0.65927,1.966603 0.07309,0.138687 0.1627,0.268015 0.244052,0.402024 0.252949,0.339603 0.529643,0.693094 0.900403,0.914569 1.388933,0.829678 1.638343,1.1225 2.839643,1.383348 0.424395,0.03253 0.876787,0.04455 1.269701,-0.155377 0.517531,-0.263332 0.790567,-0.687475 1.095521,-1.153393 0.340333,-0.652761 0.580946,-1.394857 0.462806,-2.141593 -0.07135,-0.450977 -0.202916,-0.661823 -0.391234,-1.067631 -0.275373,-0.46464 -0.628705,-0.875294 -1.099748,-1.151995 -0.532096,-0.312563 -1.683737,-1.131869 -2.571152,-1.307804 -0.157853,-0.0313 -0.320337,-0.03119 -0.480505,-0.04679 -0.449685,0.02695 -0.941234,0.106031 -1.171979,0.557572 -0.06965,0.136295 -0.11687,0.294502 -0.10472,0.44708 0.0757,0.950576 0.377661,0.25908 0.0035,0.896027 -0.04314,0.09085 -0.08628,0.181705 -0.129413,0.272558 0,0 0.0696,0.03944 0.0696,0.03944 v 0 c 0.04302,-0.09065 0.08604,-0.181298 0.129064,-0.271946 0.324715,-0.552715 0.01241,-0.216983 0.863648,-0.359069 0.630724,-0.10528 1.188675,-0.528704 1.851837,-0.452242 0.156488,0.0271 0.315852,0.04097 0.469461,0.0813 0.620302,0.162843 1.372534,0.675428 -0.700752,-0.553241 -0.143766,-0.0852 0.288653,0.170598 0.419442,0.27463 0.345768,0.275023 0.420624,0.422055 0.685495,0.774043 0.210339,0.402656 0.316328,0.529574 0.39664,0.982213 0.125314,0.706295 -0.07668,1.408242 -0.405043,2.027986 -0.245742,0.351163 -0.31696,0.512914 -0.661117,0.77379 -0.474001,0.359299 -1.041582,0.395155 -1.609167,0.308443 -0.123692,-0.03135 -0.249539,-0.05516 -0.371075,-0.09403 -0.592833,-0.189643 -1.496875,-0.767183 0.978167,0.663133 0.120296,0.06952 -0.237744,-0.144963 -0.34757,-0.23006 -0.29201,-0.226259 -0.379949,-0.3545 -0.624102,-0.633262 -0.08485,-0.127043 -0.177487,-0.249217 -0.254558,-0.381125 -0.352764,-0.603773 -0.532159,-1.283716 -0.680958,-1.960821 -0.186449,-0.86886 -0.01683,-0.371914 -1.824149,-1.174181 -0.04216,-0.01871 -0.04715,0.07978 -0.06383,0.122782 -0.105812,0.272743 -0.132361,0.569876 -0.185711,0.854686 -0.05024,0.400484 -0.06442,0.460299 -0.08769,0.87443 -0.02881,0.51272 -0.01572,1.031578 -0.112649,1.538189 0.02238,0.65032 -0.0088,0.112551 1.571799,0.970727 0.04407,0.02392 -0.06642,-0.07658 -0.0888,-0.121454 -0.153699,-0.308094 -0.210154,-0.664242 -0.410414,-0.952018 -0.200689,-0.318164 -0.591029,-0.969423 -0.905153,-1.172671 -0.647139,-0.418724 -1.314482,-0.80818 -1.999726,-1.161108 -0.124127,-0.06393 -0.271444,-0.07848 -0.411051,-0.08054 -0.12495,-0.0019 -0.245653,0.04603 -0.368478,0.06904 -0.0828,0.06518 -0.174638,0.120285 -0.248409,0.195535 -0.498618,0.508604 -0.492067,1.265611 -0.430816,1.923992 0.111816,0.844397 0.318813,1.66791 0.545161,2.488441 0.615709,0.413665 1.192723,0.891746 1.847125,1.240994 0.06786,0.03622 0.11952,-0.104458 0.150672,-0.17479 0.01831,-0.04132 -0.07618,-0.323244 -0.08456,-0.350051 -0.116276,-0.372118 -0.101531,-0.31541 -0.249195,-0.718471 -0.414213,-1.055635 -0.862748,-2.123861 -1.726102,-2.898193 -0.663072,-0.401 -1.314566,-0.821801 -1.989214,-1.203002 -0.215696,-0.121875 -0.517927,-0.21068 -0.769649,-0.138602 -0.414941,0.118816 -0.561784,0.577358 -0.664287,0.93599 -0.0127,0.18079 -0.04218,0.361183 -0.03806,0.542372 0.01045,0.458671 0.1069,0.88668 0.216414,1.330158 0.173167,0.701255 0.407987,1.384171 0.639839,2.067491 0.05523,0.169403 0.111511,0.338466 0.165695,0.508207 0.02933,0.09187 0.0027,0.226094 0.08483,0.276601 0.589531,0.362426 1.244145,0.60652 1.861214,0.919776 0.03306,0.01677 -0.08006,-0.0042 -0.107283,-0.02939 -0.09266,-0.08567 -0.308653,-0.461089 -0.354772,-0.536795 -0.445228,-0.837321 -0.858943,-1.697635 -1.150025,-2.601984 -0.168172,-0.873553 -0.0031,-0.339865 -1.873747,-1.109731 -0.05437,-0.02238 0.05266,0.105529 0.07171,0.161155 0.149555,0.436634 0.19836,0.898105 0.300929,1.346102 0.01675,0.210921 0.04468,0.421254 0.05025,0.632767 0.01897,0.72082 -0.0392,1.697424 -0.456788,2.311622 -0.07125,0.104799 -0.17064,0.187397 -0.255963,0.281094 -0.246848,0.132307 -0.287017,0.204044 -0.586727,0.156059 -0.129024,-0.02066 -0.477594,-0.200409 -0.372115,-0.123283 0.347655,0.254207 0.721709,0.474676 1.109348,0.662348 0.160882,0.07789 -0.29097,-0.20913 -0.42272,-0.329922 -0.1417,-0.129914 -0.263485,-0.280001 -0.395226,-0.42 -0.314481,-0.440153 -0.443069,-0.591981 -0.705054,-1.079458 -0.425527,-0.791771 -0.708541,-1.648986 -1.049195,-2.477749 -0.152529,-0.368696 -0.196503,-0.495403 -0.365577,-0.835189 -0.04474,-0.08992 -0.05922,-0.209452 -0.142616,-0.265411 -0.606435,-0.406908 -1.242793,-0.770737 -1.894067,-1.101161 -0.05048,-0.02561 -0.112988,0.02661 -0.159057,0.05951 -0.04348,0.03105 -0.06657,0.08359 -0.09985,0.125383 -0.177459,0.495504 -0.182864,1.030645 -0.327208,1.535634 -0.156048,0.532228 -0.353867,1.303618 -0.831437,1.64647 -0.05762,0.04137 -0.129667,0.05755 -0.194501,0.08633 -0.06745,8.4e-5 -0.135818,0.01135 -0.202345,2.54e-4 -0.06953,-0.01162 -0.259855,-0.105365 -0.200411,-0.06748 3.295057,2.100005 1.453293,0.997995 1.131236,0.55804 -0.04905,-0.06701 -0.08413,-0.143192 -0.12619,-0.214788 -0.09145,-0.234501 -0.158959,-0.453465 -0.181165,-0.7057 -0.0053,-0.06065 -0.0094,-0.121727 -0.0066,-0.182549 0.0028,-0.05865 0.07383,-0.144664 0.02331,-0.174599 -0.60715,-0.359785 -1.265823,-0.624496 -1.898735,-0.936744 -0.178424,0.570625 -0.339704,1.149673 -0.647319,1.669484 -0.317286,0.533887 -0.656069,1.058206 -1.067951,1.524707 0,0 1.456396,0.898384 1.456396,0.898384 z" />
    <path
       style="opacity:1;mix-blend-mode:normal;fill:url(#linearGradient5936);fill-opacity:1;fill-rule:nonzero;stroke:url(#linearGradient6043);stroke-width:0.264583;stroke-opacity:0.44086"
       id="path1118"
       d="m 51.882098,25.880139 c 0.01773,-0.04223 0.04363,-0.0819 0.05317,-0.126702 0.04595,-0.215681 0.01603,-0.447381 0.05748,-0.665259 0.04749,-0.2496 0.07488,-0.265479 0.187645,-0.493258 0.05934,-0.07135 0.109628,-0.151321 0.178025,-0.21404 0.293717,-0.269337 0.784609,-0.40036 1.177087,-0.3536 0.103086,0.01228 0.1999,0.05613 0.299849,0.08419 0.817888,0.576119 -0.379566,-0.284484 -1.168807,-0.55327 -0.109834,-0.0374 0.125799,0.196377 0.170606,0.303403 0.165306,0.394843 0.156503,0.804372 0.152199,1.222566 -0.03486,0.748452 -0.18601,1.484203 -0.259086,2.228679 -0.0546,0.554779 0.123439,1.074836 0.302091,1.589725 0.193826,0.459727 0.237299,1.098093 0.552902,1.494729 0.09401,0.118147 0.215035,0.212008 0.322554,0.318011 0.419738,0.189931 0.601035,0.372697 0.828958,0.698127 0,0 0.07337,0.03188 0.07337,0.03188 v 0 c -0.180033,-0.25509 -0.213506,-0.350793 0.315119,-0.173831 0.04435,-0.03281 0.117456,-0.04551 0.133035,-0.09842 0.02117,-0.07187 -0.02159,-0.148468 -0.03889,-0.221356 -0.09687,-0.40777 -0.258588,-0.799713 -0.373491,-1.202277 -0.185788,-0.50414 -0.424246,-0.996984 -0.405416,-1.548884 0.04045,-0.762865 0.113512,-1.523156 0.174533,-2.284578 0.01005,-0.427459 0.02931,-0.85489 -0.07473,-1.274387 -0.02837,-0.114395 -0.0208,-0.261451 -0.112815,-0.335101 -1.223169,-0.979036 -1.236139,-0.965089 -2.08279,-1.322223 -0.103042,-0.01123 -0.205475,-0.03285 -0.30912,-0.03369 -0.627288,-0.0051 -1.128528,0.201229 -1.497428,0.712905 -0.04389,0.09423 -0.09922,0.183924 -0.131657,0.282679 -0.126711,0.385801 -0.05503,0.838936 0.0649,1.215188 0,0 1.410708,0.718791 1.410708,0.718791 z" />
    <path
       style="opacity:1;mix-blend-mode:normal;fill:url(#linearGradient5938);fill-opacity:1;fill-rule:nonzero;stroke:url(#linearGradient6045);stroke-width:0.264583;stroke-opacity:0.44086"
       id="path1120"
       d="m 56.31394,36.12869 c 0.337545,-0.204854 0.692147,-0.37946 1.036494,-0.572797 0.0217,-0.02513 0.09381,-0.05865 0.06512,-0.07538 -0.506576,-0.295408 -1.021633,-0.583952 -1.566698,-0.800256 -0.05647,-0.02241 -0.08729,0.08453 -0.1313,0.126418 -0.201832,0.192074 -0.401394,0.384545 -0.596114,0.583906 -0.08632,0.08492 -0.218429,0.232944 -0.336682,0.291949 -0.02811,0.01402 -0.120674,-0.0035 -0.09346,0.0122 1.820555,1.050989 1.228762,1.237102 1.502135,0.586841 0.03935,-0.123653 0.08715,-0.234431 0.07762,-0.368708 -0.0051,-0.07209 -0.05521,-0.138755 -0.05044,-0.21087 0.0031,-0.04774 0.110493,-0.14183 0.14369,-0.173834 0,0 -0.78968,-0.476702 -0.78968,-0.476702 v 0 c -0.03287,0.04495 -0.102913,0.15122 -0.154901,0.169296 -0.08069,0.02806 -0.171833,0.0097 -0.254288,0.03199 -0.173591,0.04705 -0.230952,0.113202 -0.365596,0.219294 -0.0033,0.004 -0.233982,0.272309 -0.199028,0.297331 1.478667,1.05854 1.170043,1.144998 1.862995,0.446879 0.205782,-0.187997 0.410221,-0.376516 0.645607,-0.52791 0.05139,-0.03305 0.208153,-0.05128 0.160174,-0.08911 -1.285507,-1.013545 -1.870374,-0.569103 -1.341409,-0.942906 -0.114585,0.121401 -0.245925,0.189484 -0.389588,0.273616 -0.190952,0.111824 -0.379174,0.229259 -0.585205,0.312661 0,0 1.360564,0.886105 1.360564,0.886105 z" />
    <path
       style="opacity:1;mix-blend-mode:normal;fill:url(#linearGradient5940);fill-opacity:1;fill-rule:nonzero;stroke:url(#linearGradient6047);stroke-width:0.264583;stroke-opacity:0.44086"
       id="path1122"
       d="m 25.188734,27.659793 c -0.03201,-0.367266 0.01718,-0.700511 0.169036,-1.035566 0.191729,-0.313491 0.487001,-0.504541 0.819886,-0.642183 0.14229,-0.02819 0.284468,-0.05277 0.419734,0.01561 0.03642,0.01841 0.136589,0.08913 0.100957,0.06924 -1.378954,-0.769734 -1.926673,-1.144943 -1.371742,-0.76821 0.02822,0.02052 0.05457,0.04391 0.08468,0.06155 0.562495,0.329737 1.125137,0.659325 1.69266,0.980329 0.03617,0.02045 0.07839,0.02766 0.116917,0.04321 0.102068,0.04119 0.194336,0.0862 0.28493,0.148163 -0.513292,-0.296209 -1.025076,-0.595043 -1.539873,-0.888625 -0.02366,-0.01349 0.04515,0.03064 0.06604,0.04812 0.09366,0.07836 0.130451,0.177259 0.16727,0.290352 0.04846,0.252188 0.04777,0.509347 0.05431,0.764884 0.01433,0.300953 0.0052,0.601054 -0.01257,0.901409 -0.01054,0.132414 -0.02396,0.264766 -0.01814,0.397714 -0.0072,0.104502 0.0065,0.211235 -0.0091,0.314664 -0.04804,0.09243 -0.156977,0.137064 -0.250202,0.171508 -0.108849,0.03937 -0.226397,0.03824 -0.3407,0.03883 -0.210943,-0.02418 -0.41918,-0.07304 -0.628477,-0.110376 -0.164275,-0.0364 -0.310542,-0.120002 -0.465771,-0.181298 -0.581477,-0.239488 0.134708,0.05302 1.43918,0.850453 0.146069,0.08929 -0.31322,-0.142542 -0.454414,-0.239361 -0.0864,-0.05925 -0.258263,-0.390866 -0.313948,-0.489857 0,0 -0.775478,-0.346432 -0.775478,-0.346432 v 0 c 0.06405,0.114588 0.126424,0.230116 0.191379,0.344193 0.02755,0.04839 0.135473,0.120955 0.08476,0.143947 -0.09262,0.04199 -0.384598,-0.104458 -0.301658,-0.04561 0.937074,0.664872 1.080326,0.728038 1.700753,1.017662 0.144451,0.05842 0.291521,0.102097 0.447812,0.116234 0.219694,0.03819 0.439409,0.08529 0.663384,0.08394 0.138179,-0.01024 0.271312,-0.02872 0.393341,-0.0993 0.135776,-0.07826 0.254174,-0.178837 0.318836,-0.32534 0.04183,-0.119536 0.04205,-0.234312 0.03465,-0.360034 0.0065,-0.138618 -0.0082,-0.276813 -0.01669,-0.415058 -0.01553,-0.305191 -0.02379,-0.610012 -0.01098,-0.915667 0.0024,-0.265642 0.004,-0.533331 -0.03095,-0.79707 -0.114723,-0.88581 -1.077156,-1.030811 -1.863666,-1.458683 -0.09558,-0.04347 -0.19389,-0.08204 -0.288843,-0.126642 -0.03281,-0.01541 -0.12782,-0.0684 -0.09655,-0.05006 1.850737,1.08515 1.973826,1.160839 1.397384,0.81058 -0.606205,-0.440761 -0.303594,-0.226509 -1.767161,-1.031102 -0.16719,-0.09191 -0.402145,0.0075 -0.546147,0.08945 -0.320265,0.204603 -0.623971,0.438487 -0.782267,0.796031 -0.159681,0.361105 -0.213781,0.750097 -0.142478,1.141755 0,0 1.379946,0.686667 1.379946,0.686667 z" />
    <path
       style="opacity:1;mix-blend-mode:normal;fill:url(#linearGradient5942);fill-opacity:1;fill-rule:nonzero;stroke:url(#linearGradient6049);stroke-width:0.264583;stroke-opacity:0.44086"
       id="path1124"
       d="m 30.693886,26.729348 c 0.107765,0.171784 0.210495,0.381127 0.152239,0.587172 -0.02072,0.05609 -0.08312,0.05958 -0.132279,0.04315 -0.174696,-0.429159 0.801905,0.464765 1.209707,0.684755 0.01685,0.0091 -0.01349,-0.03616 -0.01622,-0.05511 -0.01056,-0.07319 -0.01291,-0.147396 -0.02342,-0.220591 -0.115998,-0.227274 -0.0057,-0.414618 0.04677,-0.633076 0.02058,-0.03924 0.0462,-0.0556 0.0016,-0.08227 -0.104518,-0.06251 -0.208385,-0.126185 -0.314587,-0.18579 -0.09283,-0.0521 -0.188216,-0.09949 -0.282326,-0.149233 0,0 0.167958,0.123666 0.167958,0.123666 v 0 c -0.07323,-0.05091 -0.635897,-0.52069 -0.554953,-0.230383 -0.01781,0.127696 -0.01233,0.371896 -0.07843,0.471106 -0.02537,0.03808 -0.06814,0.06111 -0.1022,0.09167 -0.308116,0.491929 -0.09927,1.530969 1.137986,0.996355 0.06925,-0.0539 0.07957,-0.14409 0.125264,-0.215321 0.04828,-0.232952 -0.02556,-0.456271 -0.101312,-0.676272 0,0 -1.235818,-0.549826 -1.235818,-0.549826 z" />
    <path
       style="opacity:1;mix-blend-mode:normal;fill:url(#linearGradient5944);fill-opacity:1;fill-rule:nonzero;stroke:url(#linearGradient6051);stroke-width:0.264583;stroke-opacity:0.44086"
       id="path1126"
       d="m 56.943529,20.491735 c 0.667062,0.456641 1.372587,0.857488 2.09251,1.22491 0.04188,0.01992 0.08358,0.04019 0.125622,0.05975 0.03744,0.01742 0.07599,0.0325 0.112823,0.05118 0.03033,0.01538 0.117944,0.06778 0.08844,0.05087 -2.285764,-1.309841 -1.595829,-0.95174 -1.16687,-0.6622 0.476168,0.27676 0.949793,0.557946 1.428506,0.830281 0.103648,0.05896 0.24275,-0.09598 0.313375,-0.148439 0.209572,-0.220057 0.428228,-0.429844 0.660895,-0.625407 0.208471,-0.129359 0.367207,-0.287887 0.447612,-0.520017 0.235328,-0.569806 -1.395199,-1.465055 -1.411672,-0.839944 -0.03591,0.121744 -0.07207,0.245603 -0.09256,0.371365 -0.01752,0.112023 -0.02307,0.132407 0.07793,0.199234 0.09565,0.06329 0.19593,0.119953 0.28747,0.18904 0.05708,0.04308 0.104598,0.09755 0.156895,0.14633 -0.111331,-0.0016 -0.05341,0.0016 -0.173691,-0.01076 0,0 0.06425,0.04766 0.06425,0.04766 v 0 c 0.120939,0.0116 0.06266,0.0089 0.174766,0.0093 0.09165,0.04362 0.182713,0.08848 0.274944,0.13085 0.169299,0.07777 0.425101,0.24563 0.494922,0.127467 0.01717,-0.02908 0.0029,-0.07047 0.02394,-0.09846 0.03412,-0.12658 0.083,-0.240585 0.127461,-0.363413 0.138483,-0.585919 0.03186,-0.05756 -1.426022,-0.844327 -0.0055,-0.003 0.0061,0.01133 0.0065,0.01756 0.0026,0.04371 -0.03481,0.07616 -0.03517,0.119942 -0.06047,0.194288 -0.179742,0.349771 -0.323072,0.492994 -0.225853,0.202434 -0.445283,0.415517 -0.69605,0.587152 -0.03801,0.02687 -0.0633,0.05783 -0.112733,0.05447 -0.04126,-0.0028 -0.06702,-0.04496 -0.10174,-0.06123 0.445719,0.259782 0.891436,0.519565 1.337156,0.779347 -0.584904,-0.408257 -1.213064,-0.755511 -1.861629,-1.051347 -0.466506,-0.244729 -1.196086,-0.680691 0.894447,0.527969 0.09763,0.05645 -0.194307,-0.114563 -0.290285,-0.173779 -0.03495,-0.02156 -0.06972,-0.04342 -0.104581,-0.06514 0,0 -1.394344,-0.553185 -1.394344,-0.553185 z" />
  </g>
  <g
     inkscape:groupmode="layer"
     id="layer3"
     inkscape:label="Слой 3"
     sodipodi:insensitive="true"
     style="display:inline">
    <g
       sodipodi:type="inkscape:box3d"
       id="g8309"
       style="opacity:1;fill:#008066;fill-opacity:1;fill-rule:nonzero;stroke:#000000;stroke-opacity:0.44086"
       inkscape:perspectiveID="#perspective8307"
       inkscape:corner0="11.770954 : 0.088371483 : 0 : 1"
       inkscape:corner7="-10.331205 : -0.034342334 : 0.25 : 1">
      <path
         sodipodi:type="inkscape:box3dside"
         id="path8315"
         style="fill:#8686bf;fill-rule:evenodd;stroke:none;stroke-width:1.27123;stroke-linejoin:round"
         inkscape:box3dsidetype="3"
         d="M 20.879273,6.5018695 7.9075418,21.460183 V 8.3092758 L 20.879273,16.110691 Z"
         points="7.9075418,21.460183 7.9075418,8.3092758 20.879273,16.110691 20.879273,6.5018695 " />
      <path
         sodipodi:type="inkscape:box3dside"
         id="path8311"
         style="fill:#353564;fill-rule:evenodd;stroke:none;stroke-width:1.27123;stroke-linejoin:round"
         inkscape:box3dsidetype="6"
         d="m 20.879273,6.5018695 v 9.6088215 l 2.556356,-0.091 V 6.5953559 Z"
         points="20.879273,16.110691 23.435629,16.019689 23.435629,6.5953559 20.879273,6.5018695 " />
      <path
         sodipodi:type="inkscape:box3dside"
         id="path8313"
         style="fill:url(#linearGradient8461);fill-opacity:1;fill-rule:evenodd;stroke:none;stroke-width:1.27123;stroke-linejoin:round"
         inkscape:box3dsidetype="5"
         d="M 20.879273,6.5018695 7.9075418,21.460183 3.8850435,21.737932 23.435629,6.5953559 Z"
         points="7.9075418,21.460183 3.8850435,21.737932 23.435629,6.5953559 20.879273,6.5018695 " />
      <path
         sodipodi:type="inkscape:box3dside"
         id="path8321"
         style="fill:#e9e9ff;fill-rule:evenodd;stroke:none;stroke-width:1.27123;stroke-linejoin:round"
         inkscape:box3dsidetype="11"
         d="M 23.435629,6.5953559 3.8850435,21.737932 V 8.2249884 L 23.435629,16.019689 Z"
         points="3.8850435,21.737932 3.8850435,8.2249884 23.435629,16.019689 23.435629,6.5953559 " />
      <path
         sodipodi:type="inkscape:box3dside"
         id="path8317"
         style="fill:url(#linearGradient8389);fill-opacity:1;fill-rule:evenodd;stroke:none;stroke-width:1.27123;stroke-linejoin:round"
         inkscape:box3dsidetype="14"
         d="M 7.9075418,21.460183 V 8.3092758 L 3.8850435,8.2249884 V 21.737932 Z"
         points="7.9075418,8.3092758 3.8850435,8.2249884 3.8850435,21.737932 7.9075418,21.460183 "
         inkscape:label="path8317" />
      <path
         sodipodi:type="inkscape:box3dside"
         id="path8319"
         style="fill:#afafde;fill-rule:evenodd;stroke:none;stroke-width:1.27123;stroke-linejoin:round"
         inkscape:box3dsidetype="13"
         d="M 20.879273,16.110691 7.9075418,8.3092758 3.8850435,8.2249884 23.435629,16.019689 Z"
         points="7.9075418,8.3092758 3.8850435,8.2249884 23.435629,16.019689 20.879273,16.110691 " />
    </g>
    <g
       sodipodi:type="inkscape:box3d"
       id="g9226"
       style="opacity:1;fill:#ff0066;fill-opacity:1;fill-rule:nonzero;stroke:#000000;stroke-opacity:0.44086"
       inkscape:perspectiveID="#perspective9240"
       inkscape:corner0="-10.318904 : 0.24382795 : 0 : 1"
       inkscape:corner7="-11.572469 : 0.20267528 : 0.51951132 : 1">
      <path
         sodipodi:type="inkscape:box3dside"
         id="path9232"
         style="fill:#8686bf;fill-rule:evenodd;stroke:none;stroke-linejoin:round"
         inkscape:box3dsidetype="3"
         d="M 18.131214,8.7435872 18.671961,5.7578813 V 1.8654444 l -0.540747,2.4621011 z"
         points="18.671961,5.7578813 18.671961,1.8654444 18.131214,4.3275455 18.131214,8.7435872 " />
      <path
         sodipodi:type="inkscape:box3dside"
         id="path9236"
         style="fill:#afafde;fill-rule:evenodd;stroke:none;stroke-linejoin:round"
         inkscape:box3dsidetype="13"
         d="M 18.131214,4.3275455 18.671961,1.8654444 14.07164,2.8113004 12.843604,5.5535096 Z"
         points="18.671961,1.8654444 14.07164,2.8113004 12.843604,5.5535096 18.131214,4.3275455 " />
      <path
         sodipodi:type="inkscape:box3dside"
         id="path9228"
         style="fill:#353564;fill-rule:evenodd;stroke:none;stroke-linejoin:round"
         inkscape:box3dsidetype="6"
         d="M 18.131214,8.7435872 V 4.3275455 l -5.28761,1.2259641 v 4.6767624 z"
         points="18.131214,4.3275455 12.843604,5.5535096 12.843604,10.230272 18.131214,8.7435872 " />
      <path
         sodipodi:type="inkscape:box3dside"
         id="path9230"
         style="fill:#ff0066"
         inkscape:box3dsidetype="5"
         d="M 18.131214,8.7435872 18.671961,5.7578813 14.07164,6.9048885 12.843604,10.230272 Z"
         points="18.671961,5.7578813 14.07164,6.9048885 12.843604,10.230272 18.131214,8.7435872 " />
      <path
         sodipodi:type="inkscape:box3dside"
         id="path9234"
         style="fill:#2aff2a"
         inkscape:box3dsidetype="14"
         d="M 18.671961,5.7578813 V 1.8654444 l -4.600321,0.945856 v 4.0935881 z"
         points="18.671961,1.8654444 14.07164,2.8113004 14.07164,6.9048885 18.671961,5.7578813 " />
      <path
         sodipodi:type="inkscape:box3dside"
         id="path9238"
         style="fill:#e9e9ff;fill-rule:evenodd;stroke:none;stroke-linejoin:round"
         inkscape:box3dsidetype="11"
         d="M 12.843604,10.230272 14.07164,6.9048885 V 2.8113004 l -1.228036,2.7422092 z"
         points="14.07164,6.9048885 14.07164,2.8113004 12.843604,5.5535096 12.843604,10.230272 " />
    </g>
    <circle
       style="opacity:1;fill:url(#radialGradient9330);fill-opacity:1;fill-rule:nonzero;stroke:#000000;stroke-width:0.264583;stroke-opacity:0.44086"
       id="path9314"
       cx="16.351469"
       cy="20.244677"
       r="4.0044417" />
  </g>
  <g
     inkscape:groupmode="layer"
     id="layer5"
     inkscape:label="Слой 5">
    <path
       style="opacity:1;fill:none;fill-opacity:1;fill-rule:nonzero;stroke:#d000d9;stroke-width:0.264583;stroke-opacity:0.44086003"
       d="m 62.625016,47.83083 c 0,0 3.2258,9.89987 1.557285,-8.787524 -1.668518,-18.687394 0.889875,7.675179 0.889875,7.675179 l 2.669628,1.001112 c 0,0 -2.558394,-6.340367 0.222469,-5.228022 2.780861,1.112343 4.560612,6.67407 2.113455,5.895428 -2.447161,-0.778643 0.444936,0.222469 0.444936,0.222469 l 0.667409,-0.667408 -0.222469,-2.002222 c 0,0 -3.893209,-4.894315 -3.114567,-5.005551 0.778642,-0.111234 5.116788,8.676291 5.116788,8.676291 l 6.785303,-15.350361 c 0,0 -0.111234,-11.902089 -2.335925,-1.001109 -2.22469,10.900979 -2.447157,16.129 -2.447157,16.129 0,0 4.449379,3.893209 5.228021,0.22247 0.77864,-3.67074 -4.783085,-5.672958 -4.783085,-5.672958 0,0 -36.262442,-6.451603 -14.571718,-7.897648 21.690727,-1.446049 20.578382,11.679621 20.578382,11.679621 0,0 0,1.668515 -1.223579,3.781972 -1.223582,2.113455 -23.025539,-2.335924 -23.025539,-2.335924 0,0 -3.44827,0.111233 -2.66963,-0.667409 0.778642,-0.778639 -3.00333,-5.228021 0.667409,-7.786412 3.670736,-2.558394 5.784194,-5.89543 9.899869,-3.114567 4.115676,2.780861 8.342585,-1.557281 7.23024,2.558394 -1.112343,4.115676 -7.007773,5.116785 -7.675179,5.005552 -0.667406,-0.111236 -6.4516,-4.004442 -3.559503,-5.005552 2.892097,-1.001112 5.895427,-1.334815 5.784194,-0.444939 -0.111236,0.889876 0,2.558394 -1.112346,3.2258 -1.112345,0.667406 -2.447157,-1.112345 -2.447157,-1.112345"
       id="path10936" />
  </g>
  <metadata
     id="metadata10437">
    <rdf:RDF>
      <cc:Work
         rdf:about="">
        <dc:title>lab1</dc:title>
      </cc:Work>
    </rdf:RDF>
  </metadata>
</svg>
